<?xml version="1.0" encoding="UTF-8"?>
<svg version="1.1" xmlns="http://www.w3.org/2000/svg" width="225" height="225">
<path d="M0 0 C22.82510604 19.2129271 36.34635583 44.23129997 39 74 C40.9645319 101.33742976 32.12726317 127.84808101 14.625 148.8125 C-3.38040767 169.48433836 -27.8568904 183.44825089 -55.51171875 185.875 C-86.77678602 187.44561562 -113.88998512 178.56401001 -137.1875 157.625 C-157.96380873 138.35321672 -168.27171448 113.04994502 -170.27734375 85.140625 C-171.06538831 55.76232384 -159.99302004 29.19870056 -140 8 C-103.71843726 -30.20002795 -40.45144949 -33.42159523 0 0 Z M-125 42 C-131.87430578 50.38665305 -133.31134782 58.00011155 -133.3359375 68.578125 C-133.3425943 69.58534607 -133.3492511 70.59256714 -133.35610962 71.63031006 C-133.3662009 73.75498641 -133.37092773 75.87969424 -133.37060547 78.00439453 C-133.37496768 81.22612802 -133.41129568 84.44647813 -133.44921875 87.66796875 C-133.45509011 89.74218287 -133.45905737 91.81640342 -133.4609375 93.890625 C-133.47530853 94.83995911 -133.48967957 95.78929321 -133.50448608 96.76739502 C-133.43979487 106.41390372 -130.81531839 115.18979514 -124.0625 122.27734375 C-116.50317922 128.59109463 -108.56406373 130.14669005 -98.97192383 130.16113281 C-98.17771027 130.16609772 -97.3834967 130.17106262 -96.56521606 130.17617798 C-93.94581219 130.19074453 -91.32646892 130.19759325 -88.70703125 130.203125 C-86.87725321 130.20888203 -85.04747518 130.21463969 -83.21769714 130.22039795 C-79.38202637 130.23089302 -75.54637646 130.23674511 -71.71069336 130.24023438 C-66.81628038 130.24570866 -61.92214705 130.2697202 -57.02782154 130.29820633 C-53.2469352 130.31691174 -49.46611507 130.32204255 -45.68518639 130.32357025 C-43.8820207 130.3265807 -42.07885573 130.33455434 -40.27573586 130.34775543 C-27.30331795 130.4359326 -15.98192126 130.40261333 -6 121 C2.87605561 111.98525603 2.40416575 98.67520881 2.36132812 86.859375 C2.34888062 85.50682617 2.34888062 85.50682617 2.33618164 84.12695312 C2.31248624 81.37340144 2.31565339 78.6208162 2.32226562 75.8671875 C2.46007491 57.63991803 2.46007491 57.63991803 -6 42 C-16.32145683 31.85573556 -29.27930355 32.54849387 -42.78125 32.6015625 C-44.60388302 32.59953767 -46.42651524 32.59662284 -48.24914551 32.59286499 C-52.05501069 32.58846088 -55.86066355 32.5948107 -59.66650391 32.60888672 C-64.52158768 32.62597743 -69.37617376 32.61612594 -74.23123932 32.59816933 C-77.99069911 32.58727957 -81.75004275 32.59080154 -85.50950623 32.5985527 C-87.29870158 32.60054039 -89.08790781 32.59814632 -90.87709045 32.59111404 C-109.47999195 32.52341588 -109.47999195 32.52341588 -125 42 Z " fill="#1586E8" transform="translate(178,31)"/>
<path d="M0 0 C0.81576508 -0.00686325 1.63153015 -0.0137265 2.47201538 -0.02079773 C5.14501793 -0.0389672 7.817428 -0.03524249 10.49047852 -0.02954102 C12.36320687 -0.0341075 14.23593356 -0.03941446 16.10865784 -0.04542542 C20.02481921 -0.05433714 23.94077644 -0.05195546 27.85693359 -0.04199219 C32.85799815 -0.03050413 37.85835643 -0.05072142 42.85932827 -0.07990932 C46.7242729 -0.09831687 50.58904968 -0.09796982 54.45402718 -0.0922718 C56.29708917 -0.09211915 58.14016294 -0.09811684 59.98318291 -0.11056328 C78.49195306 -0.21796391 78.49195306 -0.21796391 85.43188477 4.40405273 C86.27709938 4.94111595 86.27709938 4.94111595 87.13938904 5.48902893 C92.46260381 9.35300926 95.08347286 15.12117757 96.43188477 21.40405273 C96.52942169 22.88252562 96.57976546 24.36456395 96.59301758 25.84619141 C96.60262512 26.7177739 96.61223267 27.58935638 96.62213135 28.48735046 C96.62638123 29.4227919 96.6306311 30.35823334 96.63500977 31.32202148 C96.64070984 32.29383865 96.64640991 33.26565582 96.65228271 34.266922 C96.66172295 36.3237703 96.66826282 38.38063365 96.67211914 40.4375 C96.68179541 43.56269234 96.71281624 46.68721859 96.74438477 49.81225586 C96.75091834 51.81550718 96.75616742 53.81876319 96.76000977 55.82202148 C96.77235657 56.74734177 96.78470337 57.67266205 96.79742432 58.62602234 C96.76831375 67.23322569 95.09618247 74.48381067 89.11157227 80.90014648 C82.77235787 86.57595472 76.5751878 87.55207621 68.33374023 87.58105469 C67.52016556 87.58762589 66.70659088 87.59419708 65.86836243 87.60096741 C63.17859802 87.62065954 60.48888942 87.63235572 57.79907227 87.64233398 C56.87745426 87.64640951 55.95583626 87.65048504 55.00629044 87.65468407 C50.12537105 87.67553035 45.24447963 87.68983665 40.36352539 87.69921875 C35.34008987 87.71026239 30.31709982 87.74464279 25.29382133 87.78439045 C21.4159975 87.81063026 17.53827848 87.81891725 13.66037369 87.82250023 C11.80974453 87.82734947 9.95911954 87.83891565 8.10857773 87.85753822 C-12.56214498 88.05257605 -12.56214498 88.05257605 -20.97045898 81.54467773 C-21.47706055 80.92077148 -21.98366211 80.29686523 -22.50561523 79.65405273 C-23.03026367 79.04045898 -23.55491211 78.42686523 -24.09545898 77.79467773 C-28.36197737 70.8686585 -29.02613701 64.64324293 -29.00170898 56.69311523 C-29.00695084 55.68493744 -29.01219269 54.67675964 -29.01759338 53.63803101 C-29.02398811 51.5151257 -29.02270982 49.39218483 -29.01416016 47.26928711 C-29.00565816 44.0453286 -29.03443583 40.82314884 -29.06616211 37.59936523 C-29.06777474 35.52644909 -29.06719542 33.45352985 -29.06420898 31.38061523 C-29.07544296 30.4292569 -29.08667694 29.47789856 -29.09825134 28.49771118 C-29.02072978 20.9413772 -27.40631771 14.07105803 -22.70874023 8.00170898 C-22.08483398 7.49510742 -21.46092773 6.98850586 -20.81811523 6.46655273 C-20.20452148 5.9419043 -19.59092773 5.41725586 -18.95874023 4.87670898 C-12.76814016 1.06321841 -7.11544663 -0.04259976 0 0 Z M14.83015442 23.66673279 C12.44290284 26.63284149 13.02711588 30.29285657 13.06860352 33.93920898 C13.06810501 34.7736705 13.06760651 35.60813202 13.0670929 36.46788025 C13.06943216 38.2305642 13.07915206 39.99325157 13.09570312 41.75585938 C13.11932626 44.45985627 13.11625943 47.1628693 13.10961914 49.86694336 C13.11519489 51.5785378 13.12230412 53.29012808 13.13110352 55.00170898 C13.13019211 55.81317886 13.1292807 56.62464874 13.12834167 57.46070862 C13.00527274 61.90332884 13.00527274 61.90332884 15.43188477 65.40405273 C20.74550832 65.12619347 25.00379724 62.91887849 29.67407227 60.58764648 C30.8266301 60.02376976 30.8266301 60.02376976 32.00247192 59.44850159 C34.44092415 58.25344806 36.87390284 57.04769775 39.30688477 55.84155273 C40.96538847 55.02638618 42.6242392 54.21192528 44.28344727 53.39819336 C48.33698973 51.40829367 52.38566005 49.40878756 56.43188477 47.40405273 C56.68556401 45.00145472 56.68556401 45.00145472 56.43188477 42.40405273 C53.77813922 40.37451726 51.37882498 38.93727937 48.43188477 37.40405273 C47.29654297 36.81027832 46.16120117 36.21650391 44.99145508 35.60473633 C41.71615658 33.91216414 38.42246967 32.25870835 35.12084961 30.61816406 C33.03787357 29.58209661 30.95937001 28.53742022 28.88110352 27.49194336 C27.55714139 26.83062207 26.23293162 26.16979625 24.90844727 25.50952148 C24.28765289 25.19710007 23.66685852 24.88467865 23.0272522 24.56278992 C18.86666278 22.14886094 18.86666278 22.14886094 14.83015442 23.66673279 Z " fill="#1586E8" transform="translate(78.568115234375,68.595947265625)"/>
<path d="M0 0 C10.38894357 4.89764483 20.76370116 9.78990777 31 15 C31 15.66 31 16.32 31 17 C26.90898649 18.99880222 22.81553794 20.99249302 18.71972656 22.98144531 C17.32613748 23.65907394 15.93322955 24.33810524 14.54101562 25.01855469 C12.54213157 25.99521741 10.54086863 26.96684344 8.5390625 27.9375 C7.91504547 28.24373291 7.29102844 28.54996582 6.64810181 28.86547852 C2.22774341 31 2.22774341 31 0 31 C0 20.77 0 10.54 0 0 Z " fill="#1386EB" transform="translate(97,97)"/>
<path d="M0 0 C0.99 0.33 1.98 0.66 3 1 C1.58833114 1.98635837 0.17043816 2.96381255 -1.25 3.9375 C-2.43335938 4.75541016 -2.43335938 4.75541016 -3.640625 5.58984375 C-8.28504539 8.36573077 -12.86627619 8.1483762 -18.16162109 8.14526367 C-19.39162086 8.15030159 -19.39162086 8.15030159 -20.64646912 8.15544128 C-23.35547402 8.16493507 -26.064417 8.16689361 -28.7734375 8.16796875 C-30.65906805 8.17118244 -32.54469835 8.1745466 -34.43032837 8.17805481 C-38.3829201 8.18404215 -42.33548999 8.18589512 -46.28808594 8.18530273 C-51.34764484 8.18520114 -56.40706334 8.19885246 -61.46658897 8.21607494 C-65.36140585 8.22720491 -69.2561889 8.22922163 -73.15102005 8.22869301 C-75.01609404 8.22987165 -76.88116895 8.23428694 -78.74622726 8.24202538 C-81.35744757 8.25184525 -83.96836443 8.24893933 -86.57958984 8.24291992 C-87.34654678 8.24853943 -88.11350372 8.25415894 -88.90370178 8.25994873 C-93.315263 8.23416497 -96.89944239 7.63247812 -101 6 C-101 5.67 -101 5.34 -101 5 C-99.0085944 4.61866701 -97.00720923 4.28674418 -95 4 C-94.67 4.33 -94.34 4.66 -94 5 C-91.35407829 5.11109822 -88.73401569 5.15739289 -86.0871582 5.16113281 C-85.25784286 5.16609772 -84.42852753 5.17106262 -83.57408142 5.17617798 C-80.81630639 5.19084344 -78.05858895 5.19761026 -75.30078125 5.203125 C-73.38844297 5.20887461 -71.47610471 5.21463237 -69.56376648 5.22039795 C-65.54617035 5.23092161 -61.52859431 5.23675475 -57.51098633 5.24023438 C-52.36720747 5.24570982 -47.22369457 5.26971175 -42.07999897 5.29820633 C-38.12598402 5.31685173 -34.17203272 5.32203941 -30.21797752 5.32357025 C-28.32219177 5.32659503 -26.42640709 5.33461767 -24.53066444 5.34775543 C-21.87351074 5.36484914 -19.21700115 5.36292715 -16.55981445 5.35644531 C-15.77879364 5.3656601 -14.99777283 5.37487488 -14.19308472 5.3843689 C-8.36272598 5.33991481 -4.16595918 4.16595918 0 0 Z " fill="#077EE1" transform="translate(165,148)"/>
<path d="M0 0 C1.88307861 0.48218994 1.88307861 0.48218994 3.80419922 0.97412109 C12.15403934 2.63268478 20.65417831 2.35948803 29.1328125 2.4140625 C30.97940919 2.43279959 32.82599754 2.45237484 34.6725769 2.4727478 C39.50243184 2.52380681 44.33231445 2.56357197 49.16229248 2.60089111 C54.1030548 2.64109632 59.0437046 2.69211284 63.984375 2.7421875 C73.65617065 2.83863569 83.32803023 2.92313882 93 3 C93 3.66 93 4.32 93 5 C65.94 5.33 38.88 5.66 11 6 C10.34 7.32 9.68 8.64 9 10 C8.01 9.67 7.02 9.34 6 9 C6 7.02 6 5.04 6 3 C5.195625 2.87625 4.39125 2.7525 3.5625 2.625 C2.716875 2.41875 1.87125 2.2125 1 2 C0.67 1.34 0.34 0.68 0 0 Z " fill="#2B84D0" transform="translate(61,158)"/>
<path d="M0 0 C3.465 1.485 3.465 1.485 7 3 C4 5 4 5 2 5 C2 12.59 2 20.18 2 28 C3.98 27.01 5.96 26.02 8 25 C8.99 25 9.98 25 11 25 C11 24.34 11 23.68 11 23 C16.445 21.515 16.445 21.515 22 20 C22 19.34 22 18.68 22 18 C23.65 18 25.3 18 27 18 C24.16422825 20.25299489 21.3527708 21.92357476 18.0859375 23.48046875 C17.16039063 23.92197266 16.23484375 24.36347656 15.28125 24.81835938 C14.3221875 25.27017578 13.363125 25.72199219 12.375 26.1875 C11.40820312 26.65091797 10.44140625 27.11433594 9.4453125 27.59179688 C2.25746732 31 2.25746732 31 0 31 C0 20.77 0 10.54 0 0 Z " fill="#287CC4" transform="translate(97,97)"/>
<path d="M0 0 C5.70860216 -0.14153559 8.9399763 -0.03601422 14 3 C14.99 2.01 15.98 1.02 17 0 C18.0625 1.8125 18.0625 1.8125 19 4 C18.67 4.99 18.34 5.98 18 7 C14.7796918 6.00323794 11.87221191 4.93355019 8.875 3.375 C5.92972505 1.712363 5.92972505 1.712363 2 2 C2 15.2 2 28.4 2 42 C6.76881134 43.03453058 6.76881134 43.03453058 11 42 C10.67 42.99 10.34 43.98 10 45 C3.9453125 45.1953125 3.9453125 45.1953125 2 45 C0 43 0 43 -0.24050903 41.12704468 C-0.2338472 39.98787094 -0.2338472 39.98787094 -0.22705078 38.82568359 C-0.22689972 37.96494232 -0.22674866 37.10420105 -0.22659302 36.21737671 C-0.21627045 35.28712677 -0.20594788 34.35687683 -0.1953125 33.3984375 C-0.1924826 32.44683746 -0.18965271 31.49523743 -0.18673706 30.51480103 C-0.17551989 27.46807408 -0.15041263 24.42163846 -0.125 21.375 C-0.11497218 19.31250424 -0.10584599 17.25000388 -0.09765625 15.1875 C-0.07557554 10.12488733 -0.0410353 5.0624931 0 0 Z " fill="#2C85D0" transform="translate(91,90)"/>
<path d="M0 0 C0 0.66 0 1.32 0 2 C27.72 2 55.44 2 84 2 C84 2.33 84 2.66 84 3 C73.02101877 3.04636918 62.04206089 3.08189254 51.06300163 3.10362434 C45.96481743 3.11405524 40.86670029 3.12820187 35.76855469 3.15087891 C30.84727444 3.17263189 25.92605866 3.18457385 21.00473404 3.18975449 C19.1284903 3.19344582 17.25225003 3.20065407 15.37603378 3.21146011 C12.74524093 3.2260076 10.11471342 3.22797657 7.48388672 3.22705078 C6.32402504 3.23783661 6.32402504 3.23783661 5.14073181 3.24884033 C0.71060186 3.23200452 -2.88311309 2.64326506 -7 1 C-7 0.67 -7 0.34 -7 0 C-2.25 -1.125 -2.25 -1.125 0 0 Z " fill="#2781CB" transform="translate(71,153)"/>
<path d="M0 0 C0.33 0 0.66 0 1 0 C1 2.97 1 5.94 1 9 C1.33 9 1.66 9 2 9 C1.24059583 15.58150284 1.24059583 15.58150284 -0.02685547 17.78613281 C-1.42126277 20.95835695 -1.22361642 23.71879641 -1.1953125 27.171875 C-1.19106766 28.1955014 -1.19106766 28.1955014 -1.18673706 29.23980713 C-1.17558098 31.41005307 -1.15048557 33.57987971 -1.125 35.75 C-1.11496426 37.22525444 -1.10583944 38.70051537 -1.09765625 40.17578125 C-1.07565687 43.78398942 -1.04115883 47.39195375 -1 51 C-1.33 51 -1.66 51 -2 51 C-4.8973472 34.21090774 -5.46778904 16.40336711 0 0 Z " fill="#2382D1" transform="translate(12,83)"/>
<path d="M0 0 C5.45593671 1.60676453 10.3302147 4.05030894 15.375 6.625 C16.20644531 7.04523438 17.03789063 7.46546875 17.89453125 7.8984375 C19.93156359 8.92866075 21.96662189 9.96258821 24 11 C24 11.66 24 12.32 24 13 C22.68 13.33 21.36 13.66 20 14 C19.67 13.01 19.34 12.02 19 11 C17.700625 11.3403125 17.700625 11.3403125 16.375 11.6875 C12.28170605 12.0665087 10.43959315 11.15974453 7 9 C6.67 8.34 6.34 7.68 6 7 C6.33 6.34 6.66 5.68 7 5 C5.35 5.66 3.7 6.32 2 7 C1.34 4.69 0.68 2.38 0 0 Z " fill="#1882DB" transform="translate(104,101)"/>
<path d="M0 0 C3 1 3 1 4.14407349 2.67254639 C7.00339193 8.92784488 7.6278031 14.37207309 7.6796875 21.203125 C7.7009671 22.24394226 7.7222467 23.28475952 7.74417114 24.3571167 C7.78482566 26.54196404 7.8162537 28.72700083 7.83886719 30.91210938 C7.87505081 34.25469334 7.9430587 37.59552759 8.015625 40.9375 C8.05134878 43.0676778 8.08526599 45.19788683 8.1171875 47.328125 C8.13683563 48.32402649 8.15648376 49.31992798 8.17672729 50.3460083 C8.2430741 58.85809141 8.2430741 58.85809141 6 63 C5.67 63 5.34 63 5 63 C5.00444122 62.43338654 5.00888245 61.86677307 5.01345825 61.2829895 C5.05796784 55.34493552 5.08798025 49.40692953 5.10986328 43.46875 C5.11987347 41.25746737 5.13348568 39.04619782 5.15087891 36.83496094 C5.17534738 33.64254513 5.18653325 30.45030551 5.1953125 27.2578125 C5.20563507 26.28135773 5.21595764 25.30490295 5.22659302 24.29885864 C5.22798274 15.64915742 4.40353178 7.60610035 0 0 Z " fill="#2076C6" transform="translate(174,76)"/>
<path d="M0 0 C13.74779463 -0.38129477 26.81542745 0.88838694 40 5 C40 5.33 40 5.66 40 6 C33.07 5.505 33.07 5.505 26 5 C26 4.34 26 3.68 26 3 C24.8759375 3.020625 23.751875 3.04125 22.59375 3.0625 C17.84660272 3.0625 13.20821116 2.56743913 8.5 2 C7.26636719 1.85691406 7.26636719 1.85691406 6.0078125 1.7109375 C4.00473174 1.47802113 2.00229341 1.23959066 0 1 C0 0.67 0 0.34 0 0 Z " fill="#2E7EC1" transform="translate(105,8)"/>
<path d="M0 0 C0.99 0.66 1.98 1.32 3 2 C1.89718873 3.27200971 0.79269231 4.54255853 -0.3125 5.8125 C-0.92738281 6.52019531 -1.54226562 7.22789062 -2.17578125 7.95703125 C-3.73334335 9.70136739 -5.32658875 11.36778041 -7 13 C-7.99 12.67 -8.98 12.34 -10 12 C-10 11.34 -10 10.68 -10 10 C-7.5 8.375 -7.5 8.375 -5 7 C-5.33 5.35 -5.66 3.7 -6 2 C-3.1875 0.875 -3.1875 0.875 0 0 Z " fill="#1A82DA" transform="translate(189,178)"/>
<path d="M0 0 C5.67276511 -0.29341888 8.99067246 -0.00559652 14 3 C14.99 2.01 15.98 1.02 17 0 C18.0625 1.8125 18.0625 1.8125 19 4 C18.67 4.99 18.34 5.98 18 7 C14.7796918 6.00323794 11.87221191 4.93355019 8.875 3.375 C5.92972505 1.712363 5.92972505 1.712363 2 2 C2 2.66 2 3.32 2 4 C1.34 4 0.68 4 0 4 C0 2.68 0 1.36 0 0 Z " fill="#217DCA" transform="translate(91,90)"/>
<path d="M0 0 C0.928125 0.165 1.85625 0.33 2.8125 0.5 C5.95621353 1.07748388 5.95621353 1.07748388 9 1 C11.86199403 1.35774925 12.78195264 1.75859043 14.75 3.9375 C16 6 16 6 16 8 C10.31497465 6.35433477 5.23318364 3.70967216 0 1 C0 0.67 0 0.34 0 0 Z " fill="#1E80D6" transform="translate(109,97)"/>
<path d="M0 0 C0.33 0.66 0.66 1.32 1 2 C3.86926731 3.63958132 6.92415918 4.80383968 10 6 C10 6.33 10 6.66 10 7 C4.43109483 6.52013969 -0.67067568 5.70084819 -6 4 C-6 3.67 -6 3.34 -6 3 C-4.35 3 -2.7 3 -1 3 C-0.67 2.01 -0.34 1.02 0 0 Z " fill="#2281D0" transform="translate(86,208)"/>
<path d="M0 0 C0.33 0 0.66 0 1 0 C1.17913298 3.94092559 1.21705627 6.6744156 -1 10 C-2.33333333 11.33333333 -3.66666667 12.66666667 -5 14 C-6.23512079 16.13309192 -6.23512079 16.13309192 -7 18 C-8.65 18 -10.3 18 -12 18 C-10.9171875 16.9790625 -10.9171875 16.9790625 -9.8125 15.9375 C-5.12708849 11.22546684 -1.74182592 6.49226024 0 0 Z " fill="#1F7ECB" transform="translate(178,139)"/>
<path d="M0 0 C2.67438936 2.38335287 4.15158012 4.87036148 5.75 8.0625 C6.19859375 8.94035156 6.6471875 9.81820312 7.109375 10.72265625 C7.40328125 11.47417969 7.6971875 12.22570312 8 13 C7.67 13.66 7.34 14.32 7 15 C6.67 14.01 6.34 13.02 6 12 C5.34 12 4.68 12 4 12 C4 10.68 4 9.36 4 8 C2.68 8.33 1.36 8.66 0 9 C0 8.34 0 7.68 0 7 C0.66 7 1.32 7 2 7 C1.34 4.69 0.68 2.38 0 0 Z " fill="#227FCC" transform="translate(200,57)"/>
<path d="M0 0 C-1.98 0.99 -1.98 0.99 -4 2 C-3.67 2.99 -3.34 3.98 -3 5 C-6.96 5 -10.92 5 -15 5 C-12.76504572 2.76504572 -10.97585464 1.9975209 -8.0625 0.8125 C-7.18722656 0.44769531 -6.31195313 0.08289063 -5.41015625 -0.29296875 C-3 -1 -3 -1 0 0 Z " fill="#2884D2" transform="translate(80,15)"/>
<path d="M0 0 C0 0.66 0 1.32 0 2 C0.66 2 1.32 2 2 2 C2 2.66 2 3.32 2 4 C0.02 4.99 -1.96 5.98 -4 7 C-4.33 6.34 -4.66 5.68 -5 5 C-4.67 4.67 -4.34 4.34 -4 4 C-5.32 3.67 -6.64 3.34 -8 3 C-2.25 0 -2.25 0 0 0 Z " fill="#1C82D9" transform="translate(110,128)"/>
<path d="M0 0 C0.66 0.33 1.32 0.66 2 1 C-2.08783784 6.57432432 -2.08783784 6.57432432 -4.875 7.875 C-7.40156407 9.21259274 -9.05926336 10.92063932 -11 13 C-11.66 12.67 -12.32 12.34 -13 12 C-8.84792208 7.7373638 -4.63678779 3.73204871 0 0 Z " fill="#287EC7" transform="translate(49,29)"/>
<path d="M0 0 C0.33 0 0.66 0 1 0 C0.57910004 5.60461531 0.08386889 10.72086547 -2 16 C-2.33 16 -2.66 16 -3 16 C-3.37851209 10.06997733 -2.10575375 5.52760359 0 0 Z " fill="#257FCB" transform="translate(214,129)"/>
<path d="M0 0 C-3.20336822 2.83374881 -5.78087253 3.5205537 -10 4 C-10 3.01 -10 2.02 -10 1 C-6.1496895 -1.56687367 -4.41430237 -0.83288724 0 0 Z " fill="#2184D9" transform="translate(155,207)"/>
<path d="M0 0 C4.23429756 1.31061591 8.07407404 2.94356259 12 5 C12 5.66 12 6.32 12 7 C10.68 7.33 9.36 7.66 8 8 C7.67 7.01 7.34 6.02 7 5 C3.49705129 3.28432339 3.49705129 3.28432339 0 2 C0 1.34 0 0.68 0 0 Z " fill="#237AC5" transform="translate(116,107)"/>
<path d="M0 0 C1.32 0.33 2.64 0.66 4 1 C3.67 2.32 3.34 3.64 3 5 C4.32 5.66 5.64 6.32 7 7 C3.00095031 7 1.19799578 5.27413033 -2 3 C-1.34 2.01 -0.68 1.02 0 0 Z " fill="#1F82D6" transform="translate(50,192)"/>
<path d="M0 0 C2.64 0 5.28 0 8 0 C7.835 0.598125 7.67 1.19625 7.5 1.8125 C6.8885876 4.11344336 6.8885876 4.11344336 7 7 C5.83040013 6.02433888 4.66438823 5.044375 3.5 4.0625 C2.8503125 3.51722656 2.200625 2.97195312 1.53125 2.41015625 C1.0259375 1.94480469 0.520625 1.47945312 0 1 C0 0.67 0 0.34 0 0 Z " fill="#1E81D4" transform="translate(40,187)"/>
<path d="M0 0 C0.99 0.33 1.98 0.66 3 1 C1.59447701 2.03612271 0.17508306 3.05344925 -1.25 4.0625 C-2.43335938 4.91521484 -2.43335938 4.91521484 -3.640625 5.78515625 C-6 7 -6 7 -8.296875 6.68359375 C-8.85890625 6.45800781 -9.4209375 6.23242188 -10 6 C-9.44570312 5.73445312 -8.89140625 5.46890625 -8.3203125 5.1953125 C-7.59585938 4.84210938 -6.87140625 4.48890625 -6.125 4.125 C-5.40570313 3.77695313 -4.68640625 3.42890625 -3.9453125 3.0703125 C-1.84864981 2.03442457 -1.84864981 2.03442457 0 0 Z " fill="#277BC4" transform="translate(165,148)"/>
<path d="M0 0 C1.39049921 3.16022548 0.90218951 4.27014325 -0.3125 7.625 C-2 11 -2 11 -4 13 C-3.71517632 11.58194169 -3.42181856 10.16559621 -3.125 8.75 C-2.96257813 7.96109375 -2.80015625 7.1721875 -2.6328125 6.359375 C-2.00849925 4.03168856 -1.15161458 2.10968048 0 0 Z " fill="#2980CD" transform="translate(17,70)"/>
<path d="M0 0 C1.485 0.99 1.485 0.99 3 2 C5.06910593 2.02749478 5.06910593 2.02749478 7.1875 1.625 C9.0746875 1.315625 9.0746875 1.315625 11 1 C10.67 1.99 10.34 2.98 10 4 C7.36 4 4.72 4 2 4 C1.34 2.68 0.68 1.36 0 0 Z " fill="#257FCC" transform="translate(91,131)"/>
<path d="M0 0 C1.5625 1.25 1.5625 1.25 3 3 C2.6875 5.1875 2.6875 5.1875 2 7 C0.68 6.67 -0.64 6.34 -2 6 C-1.34 4.02 -0.68 2.04 0 0 Z " fill="#1B80D8" transform="translate(107,90)"/>
<path d="M0 0 C2.31 0 4.62 0 7 0 C4.11912454 2.40072955 1.43595166 4.47291037 -2 6 C-1.34 4.02 -0.68 2.04 0 0 Z " fill="#237ECC" transform="translate(56,66)"/>
<path d="M0 0 C3.63 0 7.26 0 11 0 C11 0.99 11 1.98 11 3 C10.01 3 9.02 3 8 3 C8 2.34 8 1.68 8 1 C5.36 1 2.72 1 0 1 C0 0.67 0 0.34 0 0 Z " fill="#1C7ECF" transform="translate(123,10)"/>
</svg>
